<?xml version="1.0" encoding="UTF-8" standalone="no"?>
<!-- Created with Inkscape (http://www.inkscape.org/) -->

<svg
   version="1.1"
   id="svg1"
   width="1331.2"
   height="472.20001"
   viewBox="0 0 1331.2 472.20001"
   sodipodi:docname="fd_frc_reefscape_wordmark_black_rgb.eps"
   xmlns:inkscape="http://www.inkscape.org/namespaces/inkscape"
   xmlns:sodipodi="http://sodipodi.sourceforge.net/DTD/sodipodi-0.dtd"
   xmlns="http://www.w3.org/2000/svg"
   xmlns:svg="http://www.w3.org/2000/svg">
  <defs
     id="defs1" />
  <sodipodi:namedview
     id="namedview1"
     pagecolor="#ffffff"
     bordercolor="#000000"
     borderopacity="0.25"
     inkscape:showpageshadow="2"
     inkscape:pageopacity="0.0"
     inkscape:pagecheckerboard="0"
     inkscape:deskcolor="#d1d1d1">
    <inkscape:page
       x="0"
       y="0"
       inkscape:label="1"
       id="page1"
       width="1331.2"
       height="472.20001"
       margin="0"
       bleed="0" />
  </sodipodi:namedview>
  <g
     id="g1"
     inkscape:groupmode="layer"
     inkscape:label="1">
    <g
       id="group-R5">
      <path
         id="path2"
         d="m 2667.9,506.68 h -38.72 v -58.078 h 38.72 c 18.76,0 30.67,11.609 30.67,28.886 0,17.262 -11.91,29.192 -30.67,29.192 z m 2.08,-95.321 h -40.8 v -79.828 h -41.41 v 212.09 h 82.21 c 43.8,0 70,-30.101 70,-66.133 0,-36.047 -26.2,-66.129 -70,-66.129"
         style="fill:#1F2D3D;fill-opacity:1;fill-rule:nonzero;stroke:none"
         transform="matrix(0.13333333,0,0,-0.13333333,0,472.2)" />
      <path
         id="path3"
         d="m 2870.26,506.68 h -39.02 v -56 h 39.02 c 18.17,0 30.08,11.601 30.08,28 0,16.371 -11.91,28 -30.08,28 z m 32.17,-175.149 -41.4,84.598 h -29.79 v -84.598 h -41.4 v 212.09 h 83.11 c 43.19,0 68.8,-29.512 68.8,-64.941 0,-29.782 -18.18,-48.25 -38.72,-55.711 l 47.36,-91.438 h -47.96"
         style="fill:#1F2D3D;fill-opacity:1;fill-rule:nonzero;stroke:none"
         transform="matrix(0.13333333,0,0,-0.13333333,0,472.2)" />
      <path
         id="path4"
         d="m 2999.63,331.531 v 212.09 h 139.7 V 506.68 h -98.29 v -49.75 h 83.69 V 420 h -83.69 v -51.531 h 98.29 v -36.938 h -139.7"
         style="fill:#1F2D3D;fill-opacity:1;fill-rule:nonzero;stroke:none"
         transform="matrix(0.13333333,0,0,-0.13333333,0,472.2)" />
      <path
         id="path5"
         d="m 3253.23,329.75 c -32.15,0 -56.58,6.84 -77.44,27.98 l 26.82,26.821 c 13.4,-13.41 31.56,-17.879 51.23,-17.879 24.43,0 37.52,9.238 37.52,26.219 0,7.437 -2.08,13.711 -6.55,17.879 -4.17,3.859 -8.94,5.949 -18.76,7.441 l -25.61,3.57 c -18.18,2.68 -31.58,8.348 -41.11,17.578 -10.13,10.129 -15.19,23.832 -15.19,41.692 0,37.828 28,64.347 73.86,64.347 29.2,0 50.34,-7.16 68.52,-24.718 l -26.22,-25.93 c -13.39,12.82 -29.49,14.602 -43.49,14.602 -22.03,0 -32.77,-12.204 -32.77,-26.801 0,-5.36 1.8,-11.031 6.27,-15.192 4.16,-3.871 11.02,-7.148 19.66,-8.339 l 25.01,-3.579 c 19.36,-2.691 31.58,-8.05 40.52,-16.371 11.31,-10.738 16.38,-26.218 16.38,-44.992 0,-41.086 -34.25,-64.328 -78.65,-64.328"
         style="fill:#1F2D3D;fill-opacity:1;fill-rule:nonzero;stroke:none"
         transform="matrix(0.13333333,0,0,-0.13333333,0,472.2)" />
      <path
         id="path6"
         d="m 3385.91,331.531 v 212.09 h 139.71 V 506.68 h -98.31 V 456.93 H 3511 V 420 h -83.69 v -51.531 h 98.31 v -36.938 h -139.71"
         style="fill:#1F2D3D;fill-opacity:1;fill-rule:nonzero;stroke:none"
         transform="matrix(0.13333333,0,0,-0.13333333,0,472.2)" />
      <path
         id="path7"
         d="m 3706.51,331.531 -83.99,130.16 v -130.16 h -41.41 v 212.09 h 36.94 l 84,-129.883 v 129.883 h 41.39 v -212.09 h -36.93"
         style="fill:#1F2D3D;fill-opacity:1;fill-rule:nonzero;stroke:none"
         transform="matrix(0.13333333,0,0,-0.13333333,0,472.2)" />
      <path
         id="path8"
         d="M 3888.93,506.68 V 331.531 h -41.41 V 506.68 h -55.39 v 36.941 h 152.21 V 506.68 h -55.41"
         style="fill:#1F2D3D;fill-opacity:1;fill-rule:nonzero;stroke:none"
         transform="matrix(0.13333333,0,0,-0.13333333,0,472.2)" />
      <path
         id="path9"
         d="m 3992.98,331.531 v 212.09 h 139.69 V 506.68 h -98.29 v -49.75 h 83.69 V 420 h -83.69 v -51.531 h 98.29 v -36.938 h -139.69"
         style="fill:#1F2D3D;fill-opacity:1;fill-rule:nonzero;stroke:none"
         transform="matrix(0.13333333,0,0,-0.13333333,0,472.2)" />
      <path
         id="path10"
         d="m 4291.86,493.57 c -7.16,8.641 -16.69,13.11 -30.99,13.11 h -31.26 V 368.469 h 31.26 c 14.3,0 23.83,4.472 30.99,13.109 7.75,9.531 8.94,24.723 8.94,56.883 0,32.168 -1.19,45.578 -8.94,55.109 z m 28.89,-141.789 c -14,-14 -33.96,-20.25 -56,-20.25 h -76.55 v 212.09 h 76.55 c 22.04,0 42,-6.269 56,-20.269 23.83,-23.832 21.44,-53.024 21.44,-84.891 0,-31.859 2.39,-62.852 -21.44,-86.68"
         style="fill:#1F2D3D;fill-opacity:1;fill-rule:nonzero;stroke:none"
         transform="matrix(0.13333333,0,0,-0.13333333,0,472.2)" />
      <path
         id="path11"
         d="m 4568.15,420.602 h -43.19 v -52.133 h 43.19 c 18.77,0 27.7,11.91 27.7,26.203 0,14.297 -8.93,25.93 -27.7,25.93 z m -2.69,86.078 h -40.5 v -48.852 h 40.5 c 17.58,0 27.41,9.832 27.41,24.434 0,14.59 -9.83,24.418 -27.41,24.418 z m 6.86,-175.149 h -88.77 v 212.09 h 85.19 c 41.41,0 65.54,-23.242 65.54,-59.582 0,-23.539 -15.49,-38.719 -26.22,-43.789 12.81,-5.949 29.19,-19.359 29.19,-47.648 0,-39.61 -27.1,-61.071 -64.93,-61.071"
         style="fill:#1F2D3D;fill-opacity:1;fill-rule:nonzero;stroke:none"
         transform="matrix(0.13333333,0,0,-0.13333333,0,472.2)" />
      <path
         id="path12"
         d="m 4775.57,418.5 v -86.969 h -41.09 V 418.5 l -63.75,125.121 h 44.98 l 39.61,-85.492 39.02,85.492 h 44.99 L 4775.57,418.5"
         style="fill:#1F2D3D;fill-opacity:1;fill-rule:nonzero;stroke:none"
         transform="matrix(0.13333333,0,0,-0.13333333,0,472.2)" />
      <path
         id="path13"
         d="m 5264.68,74.9102 c 0,-32.8985 7.66,-57.7305 33.74,-57.7305 10.76,0 20.07,6 24.62,14.0586 v 22.3515 l -17.8,1.6602 v 15.7305 h 63.54 V 55.25 l -13.04,-1.4414 V 1.85938 h -16.35 c -1.44,3.92968 -3.1,7.85937 -7.45,7.85937 -6.83,0 -16.56,-9.71875 -38.49,-9.71875 -39.94,0 -65.61,22.1406 -65.61,73.8789 0,50.0821 30.84,75.5311 70.16,75.5311 19.04,0 26.91,-7.851 33.32,-7.851 3.1,0 4.35,2.273 5.8,6 h 14.28 l 1.44,-48.0199 h -15.52 c -6.21,24.4219 -16.55,33.7419 -36.42,33.7419 -25.04,0 -36.22,-21.32 -36.22,-58.3708"
         style="fill:#1F2D3D;fill-opacity:1;fill-rule:nonzero;stroke:none"
         transform="matrix(0.13333333,0,0,-0.13333333,0,472.2)" />
      <path
         id="path14"
         d="m 5442.01,64.9805 v 3.7187 c 0,18.8399 -2.69,27.1211 -13.45,27.1211 -12.21,0 -15.94,-13.6719 -16.35,-30.8398 z M 5429.8,108.23 c 26.49,0 44.71,-14.2808 44.71,-45.7417 0,-2.6875 -0.21,-8.2695 -0.42,-11.168 H 5412 c 0.21,-19.25 4.56,-34.1406 23.18,-34.1406 12.83,0 18.84,7.4414 23.81,18.6211 l 14.69,-5.1719 C 5467.47,11.1719 5452.15,0 5430.01,0 c -33.53,0 -51.54,21.1016 -51.54,52.3516 0,35.5976 21.94,55.8784 51.33,55.8784"
         style="fill:#1F2D3D;fill-opacity:1;fill-rule:nonzero;stroke:none"
         transform="matrix(0.13333333,0,0,-0.13333333,0,472.2)" />
      <path
         id="path15"
         d="m 5527.67,106.789 1.45,-19.6679 h 1.24 c 5.18,10.5586 14.08,21.1089 34.97,21.1089 20.49,0 32.08,-9.5112 32.08,-33.73 V 18.2109 l 13.03,-1.4492 V 2.26953 h -54.83 V 16.7617 l 9.72,1.4492 v 52.1485 c 0,11.1797 -1.44,18.6211 -12.83,18.6211 -11.18,0 -19.86,-6.6094 -19.86,-23.3789 V 18.2109 l 10.55,-1.4492 V 2.26953 h -55.46 V 16.7617 l 12.83,1.4492 v 71.3985 l -12.83,1.4414 v 14.2772 l 39.94,1.461"
         style="fill:#1F2D3D;fill-opacity:1;fill-rule:nonzero;stroke:none"
         transform="matrix(0.13333333,0,0,-0.13333333,0,472.2)" />
      <path
         id="path16"
         d="m 5683.69,64.9805 v 3.7187 c 0,18.8399 -2.7,27.1211 -13.45,27.1211 -12.21,0 -15.94,-13.6719 -16.35,-30.8398 z m -12.21,43.2495 c 26.49,0 44.7,-14.2808 44.7,-45.7417 0,-2.6875 -0.2,-8.2695 -0.42,-11.168 h -62.09 c 0.22,-19.25 4.56,-34.1406 23.18,-34.1406 12.84,0 18.84,7.4414 23.8,18.6211 l 14.7,-5.1719 C 5709.14,11.1719 5693.83,0 5671.68,0 c -33.53,0 -51.54,21.1016 -51.54,52.3516 0,35.5976 21.95,55.8784 51.34,55.8784"
         style="fill:#1F2D3D;fill-opacity:1;fill-rule:nonzero;stroke:none"
         transform="matrix(0.13333333,0,0,-0.13333333,0,472.2)" />
      <path
         id="path17"
         d="m 5814.87,84.6406 h 50.5 V 129.75 l -13.45,1.461 v 15.93 h 61.26 V 131.41 l -13.67,-1.449 V 19.6602 L 5913.18,18 V 2.26953 h -61.26 V 18 l 13.45,1.6602 v 46.9687 h -50.5 V 19.6602 L 5828.53,18 V 2.26953 h -61.47 V 18 l 13.67,1.6602 V 129.75 l -13.67,1.461 v 15.93 h 61.47 V 131.41 l -13.66,-1.449 V 84.6406"
         style="fill:#1F2D3D;fill-opacity:1;fill-rule:nonzero;stroke:none"
         transform="matrix(0.13333333,0,0,-0.13333333,0,472.2)" />
      <path
         id="path18"
         d="m 5984.34,32.6992 v 12.8203 h -8.07 c -13.04,0 -16.77,-5.1679 -16.77,-15.9297 0,-9.7304 3.31,-14.0703 11.38,-14.0703 7.04,0 13.46,4.5508 13.46,17.1797 z m 0,23.5899 v 14.9023 c 0,15.9297 -3.73,25.2383 -18.42,25.2383 -6.22,0 -11.8,-1.4414 -11.8,-6.8203 0,-0.8281 0.21,-1.8594 0.41,-2.8985 h 7.87 c 0.62,-2.6914 1.24,-5.5898 1.24,-8.0703 0,-8.2812 -5.18,-14.2812 -15.93,-14.2812 -11.18,0 -16.15,7.2422 -16.15,16.3515 0,16.3477 14.9,27.5191 41.6,27.5191 27.53,0 43.25,-9.3081 43.25,-39.1089 V 26.4883 c 0,-7.457 0.41,-10.9688 4.77,-10.9688 1.65,0 3.72,0.4102 6.82,1.6602 l 2.9,-10.55861 C 6026.96,3.92969 6017.86,0 6007.51,0 5994.27,0 5988.68,5.57813 5986.19,15.5195 5982.48,8.67969 5974.61,0 5957.02,0 c -16.55,0 -30.42,7.23828 -30.42,27.1016 0,22.5703 15.72,29.1875 43.04,29.1875 h 14.7"
         style="fill:#1F2D3D;fill-opacity:1;fill-rule:nonzero;stroke:none"
         transform="matrix(0.13333333,0,0,-0.13333333,0,472.2)" />
      <path
         id="path19"
         d="m 6097.32,32.6992 v 12.8203 h -8.07 c -13.04,0 -16.77,-5.1679 -16.77,-15.9297 0,-9.7304 3.31,-14.0703 11.38,-14.0703 7.04,0 13.46,4.5508 13.46,17.1797 z m 0,23.5899 v 14.9023 c 0,15.9297 -3.73,25.2383 -18.43,25.2383 -6.21,0 -11.79,-1.4414 -11.79,-6.8203 0,-0.8281 0.2,-1.8594 0.41,-2.8985 h 7.87 c 0.62,-2.6914 1.24,-5.5898 1.24,-8.0703 0,-8.2812 -5.18,-14.2812 -15.93,-14.2812 -11.18,0 -16.15,7.2422 -16.15,16.3515 0,16.3477 14.9,27.5191 41.6,27.5191 27.53,0 43.25,-9.3081 43.25,-39.1089 V 26.4883 c 0,-7.457 0.41,-10.9688 4.76,-10.9688 1.65,0 3.72,0.4102 6.83,1.6602 l 2.9,-10.55861 C 6139.94,3.92969 6130.84,0 6120.49,0 6107.24,0 6101.66,5.57813 6099.17,15.5195 6095.45,8.67969 6087.59,0 6070,0 c -16.56,0 -30.43,7.23828 -30.43,27.1016 0,22.5703 15.73,29.1875 43.05,29.1875 h 14.7"
         style="fill:#1F2D3D;fill-opacity:1;fill-rule:nonzero;stroke:none"
         transform="matrix(0.13333333,0,0,-0.13333333,0,472.2)" />
      <path
         id="path20"
         d="m 6152.96,35.8008 h 12.84 c 3.31,-12.8399 14.07,-21.5195 30.22,-21.5195 11.58,0 17.17,3.7187 17.17,11.3789 0,9.3086 -9.32,10.9687 -20.9,13.039 -17.39,3.1016 -38.7,6.6211 -38.7,34.1406 0,21.5196 16.55,35.3902 38.49,35.3902 9.31,0 15.11,-2.691 19.46,-4.968 1.44,-0.832 2.9,-1.231 4.34,-1.231 2.69,0 3.1,1.438 4.14,4.957 h 10.97 V 74.9102 h -12.62 c -5.39,13.25 -12.63,19.6718 -25.88,19.6718 -8.07,0 -15.72,-3.1132 -15.72,-10.7734 0,-8.4805 9.11,-10.1367 20.28,-12.4102 17.39,-3.3086 39.74,-7.4492 39.74,-35.1875 C 6236.79,13.2383 6221.68,0 6198.7,0 c -12.82,0 -20.08,3.71875 -25.46,6.41016 -1.44,0.6289 -2.68,1.03125 -3.93,1.03125 -2.27,0 -3.1,-1.44141 -4.34,-6.20313 h -12.01 V 35.8008"
         style="fill:#1F2D3D;fill-opacity:1;fill-rule:nonzero;stroke:none"
         transform="matrix(0.13333333,0,0,-0.13333333,0,472.2)" />
      <path
         id="path21"
         d="m 6392.79,147.141 1.86,-37.461 h -5.8 c -5.37,25.25 -12.62,30.011 -34.56,30.011 h -24.83 V 79.0508 h 12.83 c 18.01,0 22.14,6.6289 25.45,25.2502 h 4.77 V 43.0391 h -5.18 c -3.31,22.1523 -6.83,27.5312 -27.52,27.5312 h -10.35 V 9.92969 l 28.77,-1.66016 v -6 h -63.33 v 6 l 17.59,1.44922 V 139.07 l -17.59,1.66 v 6.411 h 97.89"
         style="fill:#1F2D3D;fill-opacity:1;fill-rule:nonzero;stroke:none"
         transform="matrix(0.13333333,0,0,-0.13333333,0,472.2)" />
      <path
         id="path22"
         d="m 6450.09,97.6797 c -23.18,0 -28.15,-21.9414 -28.15,-43.2578 0,-21.5235 5.18,-44.91018 28.77,-44.91018 22.77,0 28.15,21.72658 28.15,43.46878 0,20.8984 -4.97,44.6992 -28.77,44.6992 z m 1.04,9.3083 c 29.59,0 44.7,-21.7263 44.7,-53.1794 C 6495.83,21.5195 6478.03,0 6449.88,0 c -28.97,0 -44.91,21.5195 -44.91,52.9805 0,32.2812 18.63,54.0075 46.16,54.0075"
         style="fill:#1F2D3D;fill-opacity:1;fill-rule:nonzero;stroke:none"
         transform="matrix(0.13333333,0,0,-0.13333333,0,472.2)" />
      <path
         id="path23"
         d="m 6538.44,33.9414 c 0,-14.6914 4.35,-22.1523 21.11,-22.1523 16.14,0 30.01,10.1406 30.01,29.3906 v 55.0508 l -15.31,1.4492 v 7.0393 l 30.2,0.82 V 10.75 l 13.67,-1.44141 V 2.26953 h -26.08 l -1.45,17.17967 C 6583.97,9.51172 6571.96,0 6555,0 c -22.15,0 -31.46,11.5781 -31.46,34.1406 v 62.0899 l -14.49,1.4492 v 7.0393 l 29.39,0.82 V 33.9414"
         style="fill:#1F2D3D;fill-opacity:1;fill-rule:nonzero;stroke:none"
         transform="matrix(0.13333333,0,0,-0.13333333,0,472.2)" />
      <path
         id="path24"
         d="m 6660.94,105.961 0.83,-19.4493 c 6.21,9.918 18.21,20.4763 36.41,20.4763 22.57,0 31.05,-11.5896 31.05,-35.7966 V 10.5508 l 14.08,-1.44924 V 2.26953 h -44.08 v 6.83203 l 15.1,1.44924 v 60.8476 c 0,16.5508 -4.14,24.4219 -21.32,24.4219 -16.13,0 -30.41,-10.9687 -30.41,-27.7305 v -57.539 l 15.31,-1.44924 V 2.26953 h -43.87 v 6.83203 l 13.45,1.44924 v 85.8789 l -13.45,1.4609 V 104.5 l 26.9,1.461"
         style="fill:#1F2D3D;fill-opacity:1;fill-rule:nonzero;stroke:none"
         transform="matrix(0.13333333,0,0,-0.13333333,0,472.2)" />
      <path
         id="path25"
         d="m 6831.24,38.6992 v 32.0703 c 0,19.25 -13.45,26.4922 -26.69,26.4922 -22.14,0 -29.6,-17.3828 -29.6,-43.4531 0,-19.8672 4.34,-42.4297 27.12,-42.4297 15.11,0 29.17,11.3828 29.17,27.3203 z m 0,55.25 v 54.2228 l -17.17,1.66 v 6.617 l 32.28,1.031 V 10.5508 l 15.11,-1.44924 V 2.26953 h -29.39 l -1.03,16.15237 C 6825.66,9.30859 6815.72,0 6797.51,0 c -26.9,0 -39.52,20.8906 -39.52,51.5195 0,35.4024 17.59,55.4685 43.66,55.4685 11.39,0 21.53,-3.519 29.59,-13.0388"
         style="fill:#1F2D3D;fill-opacity:1;fill-rule:nonzero;stroke:none"
         transform="matrix(0.13333333,0,0,-0.13333333,0,472.2)" />
      <path
         id="path26"
         d="m 6934.5,32.2813 v 15.9296 h -13.87 c -20.07,0 -27.53,-8.4804 -27.53,-20.2812 0,-12.2109 5.38,-18.21095 17.59,-18.21095 11.39,0 23.81,7.24215 23.81,22.56255 z m 0,24.207 v 13.4531 c 0,18.8399 -4.56,28.9805 -21.52,28.9805 -6.01,0 -19.46,-1.0313 -19.46,-9.3125 0,-0.8281 0.21,-1.6602 0.41,-2.6875 h 6.41 c 0.63,-2.4805 1.25,-5.1797 1.25,-7.25 0,-6.6211 -4.76,-9.7305 -10.14,-9.7305 -6.21,0 -10.97,3.7305 -10.97,11.8008 0,14.4883 14.08,25.2458 34.77,25.2458 24.63,0 34.36,-10.9685 34.36,-39.1169 V 19.8594 c 0,-9.5196 1.65,-12.00784 7.03,-12.00784 2.48,0 4.55,0.41797 6.83,1.25 l 1.45,-6.62109 C 6961.4,0.832031 6957.68,0 6952.92,0 6942.98,0 6936.57,3.71875 6935.33,14.6914 6927.87,4.14063 6915.87,0 6904.9,0 c -15.94,0 -28.76,7.03906 -28.76,26.0703 0,22.5586 19.24,30.418 44.28,30.418 h 14.08"
         style="fill:#1F2D3D;fill-opacity:1;fill-rule:nonzero;stroke:none"
         transform="matrix(0.13333333,0,0,-0.13333333,0,472.2)" />
      <path
         id="path27"
         d="m 6983.53,96.0195 h -15.52 v 8.6995 h 15.52 v 27.101 l 12.84,4.141 h 2.27 v -31.242 h 22.77 v -8.6995 h -22.77 V 26.4883 c 0,-12.0078 3.31,-16.55861 11.59,-16.55861 7.66,0 11.6,2.89061 15.11,14.69141 l 7.04,-2.0703 C 7028.44,6.21094 7020.17,0 7007.55,0 c -16.15,0 -24.02,8.07031 -24.02,23.1797 v 72.8398"
         style="fill:#1F2D3D;fill-opacity:1;fill-rule:nonzero;stroke:none"
         transform="matrix(0.13333333,0,0,-0.13333333,0,472.2)" />
      <path
         id="path28"
         d="m 7065.47,152.109 c 5.8,0 10.55,-2.48 10.55,-10.769 0,-6.82 -3.92,-10.352 -10.34,-10.352 -7.45,0 -10.55,4.141 -10.55,10.153 0,6.418 3.31,10.968 10.34,10.968 z m 9.74,-46.359 V 10.5508 l 15.72,-1.44924 V 2.26953 h -46.35 v 6.83203 l 15.52,1.44924 v 85.8789 l -15.74,1.4609 v 6.8284 l 30.85,1.031"
         style="fill:#1F2D3D;fill-opacity:1;fill-rule:nonzero;stroke:none"
         transform="matrix(0.13333333,0,0,-0.13333333,0,472.2)" />
      <path
         id="path29"
         d="m 7151.14,97.6797 c -23.18,0 -28.15,-21.9414 -28.15,-43.2578 0,-21.5235 5.17,-44.91018 28.77,-44.91018 22.77,0 28.15,21.72658 28.15,43.46878 0,20.8984 -4.97,44.6992 -28.77,44.6992 z m 1.04,9.3083 c 29.59,0 44.7,-21.7263 44.7,-53.1794 C 7196.88,21.5195 7179.08,0 7150.93,0 c -28.97,0 -44.91,21.5195 -44.91,52.9805 0,32.2812 18.63,54.0075 46.16,54.0075"
         style="fill:#1F2D3D;fill-opacity:1;fill-rule:nonzero;stroke:none"
         transform="matrix(0.13333333,0,0,-0.13333333,0,472.2)" />
      <path
         id="path30"
         d="m 7241.97,105.961 0.83,-19.4493 c 6.21,9.918 18.22,20.4763 36.43,20.4763 22.56,0 31.04,-11.5896 31.04,-35.7966 V 10.5508 l 14.07,-1.44924 V 2.26953 h -44.08 v 6.83203 l 15.1,1.44924 v 60.8476 c 0,16.5508 -4.14,24.4219 -21.31,24.4219 -16.14,0 -30.42,-10.9687 -30.42,-27.7305 v -57.539 l 15.32,-1.44924 V 2.26953 h -43.88 v 6.83203 l 13.45,1.44924 v 85.8789 l -13.45,1.4609 V 104.5 l 26.9,1.461"
         style="fill:#1F2D3D;fill-opacity:1;fill-rule:nonzero;stroke:none"
         transform="matrix(0.13333333,0,0,-0.13333333,0,472.2)" />
      <path
         id="path31"
         d="m 5744.06,812.648 -171.03,-296.238 -346.23,0.371 -62.93,-108.812 346.34,-0.367 -72.14,-124.954 h 125.7 l 305.99,530 h -125.7"
         style="fill:#1F2D3D;fill-opacity:1;fill-rule:nonzero;stroke:none"
         transform="matrix(0.13333333,0,0,-0.13333333,0,472.2)" />
      <path
         id="path32"
         d="m 5997.86,812.648 -170.97,-296.128 -92.32,0.261 -62.93,-108.812 92.43,-0.258 -72.2,-125.063 h 125.69 l 305.99,530 h -125.69"
         style="fill:#1F2D3D;fill-opacity:1;fill-rule:nonzero;stroke:none"
         transform="matrix(0.13333333,0,0,-0.13333333,0,472.2)" />
      <path
         id="path33"
         d="m 6183.58,812.648 -305.99,-530 h 125.7 l 305.99,530 h -125.7"
         style="fill:#1F2D3D;fill-opacity:1;fill-rule:nonzero;stroke:none"
         transform="matrix(0.13333333,0,0,-0.13333333,0,472.2)" />
      <path
         id="path34"
         d="m 6548.19,812.648 -221.27,-383.25 v 353.274 l -105.99,-181.91 0.01,-84.133 -49.2,0.152 -62.93,-108.812 112.14,-0.34 0.01,-124.981 h 146.93 l 305.99,530 h -125.69"
         style="fill:#1F2D3D;fill-opacity:1;fill-rule:nonzero;stroke:none"
         transform="matrix(0.13333333,0,0,-0.13333333,0,472.2)" />
      <path
         id="path35"
         d="m 6985.82,699.961 h 344.49 l 65.9,112.687 h -458.9 c -21.92,0 -42.19,-11.636 -53.25,-30.566 L 6759.81,569.309 c -18.32,-31.368 4.31,-70.789 40.64,-70.789 h 164.96 l -55.66,-92.348 c -5.33,-8.852 -14.91,-14.262 -25.24,-14.262 h -189.8 v 389.559 l -105.99,-181.899 0.02,-81.871 v -1.07 l -48.86,0.152 -62.93,-108.812 111.83,-0.34 v -0.231 l 0.03,-124.75 h 80.89 v 0 h 263.5 c 21.92,0 42.19,11.641 53.25,30.571 l 131.3,224.883 c 18.2,31.168 -4.28,70.328 -40.37,70.328 h -159.39 l 46.58,79.359 c 4.42,7.539 12.51,12.172 21.25,12.172"
         style="fill:#1F2D3D;fill-opacity:1;fill-rule:nonzero;stroke:none"
         transform="matrix(0.13333333,0,0,-0.13333333,0,472.2)" />
      <path
         id="path36"
         d="m 8464.94,2794.27 h -218.26 c -17.95,0 -25.65,7.69 -25.65,25.65 v 308.15 c 0,17.97 7.7,25.66 25.65,25.66 h 218.26 c 105.29,0 179.78,-74.45 179.78,-179.73 0,-105.28 -74.49,-179.73 -179.78,-179.73 z m -1349.81,-266.88 116.75,506.68 c 6.04,26.25 43.52,25.98 49.18,-0.36 l 108.76,-506.32 z m -1641.74,31.27 c -74.71,106.47 -201.05,182.67 -389.53,233.04 -285.06,71.89 -362.08,130.94 -362.08,231.09 0,110.42 79.59,169.47 223.4,169.47 125.8,0 215.7,-79.62 215.7,-192.61 v -12.82 c 0,-28.22 23.09,-51.36 51.35,-51.36 h 259.36 c 5.4,0 10.35,1.54 15.24,3.1 -9.24,-90.83 -14.04,-198.16 -14.04,-324.08 0,-19.37 0.38,-37.29 0.6,-55.83 z m 4459.23,-483.37 h -608.56 c -14.17,0 -25.66,11.49 -25.66,25.66 v 308.15 c 0,14.17 11.49,25.66 25.66,25.66 h 474.92 c 28.24,0 51.36,23.11 51.36,51.36 v 256.79 c 0,28.25 -23.12,51.36 -51.36,51.36 h -474.92 c -14.17,0 -25.66,11.48 -25.66,25.65 v 308.15 c 0,14.17 11.49,25.66 25.66,25.66 h 598.3 c 28.25,0 51.36,23.11 51.36,51.36 v 256.79 c 0,28.25 -23.11,51.36 -51.36,51.36 h -932.11 c -28.24,0 -51.35,-23.11 -51.35,-51.36 v -187.21 c -19.87,32.02 -43.17,62.01 -70.78,89.63 -100.15,100.15 -228.57,148.94 -390.3,148.94 h -564.94 c -28.25,0 -51.36,-23.11 -51.36,-51.36 V 2006.7 l -392.98,1468.01 c -7.69,25.7 -23.09,38.53 -48.79,38.53 h -344.07 c -23.14,0 -41.09,-12.83 -48.79,-38.53 L 6709.18,2294.62 c -7.64,18.85 -26.01,32.29 -47.49,32.29 h -261.92 c -31.48,0 -55.86,-25.92 -56.56,-57.38 -2.89,-130.26 -99.69,-219.94 -241.29,-219.94 -112.98,0 -187.47,41.1 -226,123.24 -23.09,53.93 -35.92,200.31 -35.92,441.66 0,241.4 12.83,387.73 35.92,441.65 38.53,82.2 113.02,123.29 226,123.29 141.6,0 238.4,-89.68 241.29,-219.93 0.7,-31.47 25.08,-57.39 56.56,-57.39 h 261.7 c 27.91,0 51.53,22.18 51.58,50.08 0.27,180.33 -56.22,324.58 -172.04,430.06 -115.59,105.29 -261.92,159.21 -439.09,159.21 -267.05,0 -464.79,-133.5 -557.24,-341.5 -11.78,-25.44 -21.99,-56.39 -30.81,-92.32 -44.09,261.4 -251.15,433.82 -568.69,433.82 -177.17,0 -320.98,-48.79 -431.39,-143.76 -35.04,-30.97 -63.74,-64.52 -87.48,-100.14 v 164.32 c 0,28.25 -23.11,51.36 -51.35,51.36 H 3476.2 c -28.24,0 -51.36,-23.11 -51.36,-51.36 V 1767.14 c 0,-28.24 23.12,-51.36 51.36,-51.36 H 3733 c 28.24,0 51.35,23.12 51.35,51.36 v 641.96 c 0,14.17 11.49,25.66 25.66,25.66 h 421.06 c 28.25,0 51.36,23.11 51.36,51.36 v 256.79 c 0,28.25 -23.11,51.36 -51.36,51.36 h -421.06 c -14.17,0 -25.66,11.48 -25.66,25.65 v 308.15 c 0,14.17 11.49,25.66 25.66,25.66 h 553.41 c -8.97,-37.53 -13.97,-76.75 -13.97,-118.11 0,-282.45 154.07,-464.74 459.66,-544.37 156.59,-41.1 259.31,-79.58 308.1,-115.55 46.23,-35.96 69.32,-87.32 69.32,-151.51 0,-110.41 -100.1,-184.86 -254.18,-184.86 -146.38,0 -249.1,84.71 -249.1,210.56 v 51.36 c 0,28.25 -23.11,51.36 -51.35,51.36 h -272.19 c -28.25,0 -51.36,-23.11 -51.36,-51.36 v -51.36 c 0,-166.9 59.06,-300.45 174.65,-405.73 115.54,-105.29 264.44,-156.64 449.35,-156.64 187.43,0 338.94,51.35 454.49,154.07 69.44,61.74 117.14,135.79 144.48,221.65 4.28,-12.01 8.59,-23.88 13.36,-34.17 92.45,-208 290.19,-341.55 557.24,-341.55 177.17,0 323.5,53.92 439.09,161.77 26.26,23.93 49.07,50.11 69.26,77.96 l -32.73,-121.58 c -7.7,-25.7 -10.31,-43.66 -10.31,-51.36 0,-25.7 18,-38.53 51.36,-38.53 h 269.62 c 25.7,0 41.09,12.83 48.79,38.53 l 101.81,441.88 h 422.15 l 94.91,-441.88 c 7.69,-25.7 25.66,-38.53 48.75,-38.53 h 269.61 c 9.11,0 16.82,1.15 23.58,3.06 4.85,-1.52 9.73,-3.06 15.07,-3.06 h 256.79 c 28.25,0 51.36,23.12 51.36,51.36 v 641.96 c 0,14.17 11.48,25.66 25.65,25.66 h 231.14 c 161.73,0 290.15,48.79 390.3,148.94 27.61,27.62 50.91,57.61 70.78,89.63 v -906.19 c 0,-28.24 23.11,-51.36 51.35,-51.36 h 942.37 c 28.25,0 51.36,23.12 51.36,51.36 v 256.8 c 0,28.24 -23.11,51.35 -51.36,51.35"
         style="fill:#1F2D3D;fill-opacity:1;fill-rule:nonzero;stroke:none"
         transform="matrix(0.13333333,0,0,-0.13333333,0,472.2)" />
      <path
         id="path37"
         d="m 2169.3,2101.66 c -303.22,-56.64 -611.78,-27.24 -896.47,99.32 -20.89,9.28 -44.33,-5.36 -44.33,-28.22 v -282.88 c 0,-12.29 7.15,-23.68 18.29,-28.89 294.81,-137.91 616.44,-170.2 931.95,-109.38 12.63,2.43 21.85,13.71 21.85,26.58 v 297.8 c 0,16.57 -14.99,28.71 -31.29,25.67"
         style="fill:#1F2D3D;fill-opacity:1;fill-rule:nonzero;stroke:none"
         transform="matrix(0.13333333,0,0,-0.13333333,0,472.2)" />
      <path
         id="path38"
         d="m 2858.93,2241.35 c -168.07,-5.14 -324.98,-46.6 -484.74,-90.05 -11.59,-3.16 -19.67,-13.69 -19.67,-25.7 v -296.76 c 0,-17.51 16.68,-30.21 33.59,-25.63 154.98,42.05 307.6,81.22 470.82,86.29 132.15,4.1 305.37,11.67 409.26,-80.56 20.12,-17.87 51.77,-3.66 51.76,23.25 l 2.09,250.36 c -1.37,5.45 -2.72,10.83 -4.09,16.27 -88.28,157.18 -302.42,147.33 -459.02,142.53"
         style="fill:#1F2D3D;fill-opacity:1;fill-rule:nonzero;stroke:none"
         transform="matrix(0.13333333,0,0,-0.13333333,0,472.2)" />
      <path
         id="path39"
         d="m 2169.3,2725.68 c -303.22,-56.63 -611.78,-27.23 -896.47,99.32 -20.89,9.28 -44.33,-5.36 -44.33,-28.21 v -282.88 c 0,-12.29 7.15,-23.68 18.29,-28.89 294.81,-137.92 616.44,-170.21 931.95,-109.39 12.63,2.43 21.85,13.72 21.85,26.58 v 297.8 c 0,16.58 -14.99,28.71 -31.29,25.67"
         style="fill:#1F2D3D;fill-opacity:1;fill-rule:nonzero;stroke:none"
         transform="matrix(0.13333333,0,0,-0.13333333,0,472.2)" />
      <path
         id="path40"
         d="m 2858.93,2865.38 c -168.07,-5.15 -324.98,-46.6 -484.74,-90.06 -11.59,-3.16 -19.67,-13.69 -19.67,-25.7 v -296.75 c 0,-17.52 16.68,-30.22 33.59,-25.63 154.98,42.04 307.6,81.21 470.82,86.28 132.15,4.1 305.37,11.67 409.26,-80.56 20.12,-17.87 51.77,-3.65 51.76,23.26 l 2.09,250.35 c -1.37,5.45 -2.72,10.83 -4.08,16.27 -88.29,157.19 -302.43,147.33 -459.03,142.54"
         style="fill:#1F2D3D;fill-opacity:1;fill-rule:nonzero;stroke:none"
         transform="matrix(0.13333333,0,0,-0.13333333,0,472.2)" />
      <path
         id="path41"
         d="m 2169.3,3349.7 c -303.22,-56.63 -611.78,-27.23 -896.47,99.32 -20.89,9.29 -44.33,-5.36 -44.33,-28.21 v -282.88 c 0,-12.29 7.15,-23.68 18.29,-28.89 294.81,-137.91 616.44,-170.2 931.95,-109.39 12.63,2.44 21.85,13.72 21.85,26.59 v 297.79 c 0,16.58 -14.99,28.72 -31.29,25.67"
         style="fill:#1F2D3D;fill-opacity:1;fill-rule:nonzero;stroke:none"
         transform="matrix(0.13333333,0,0,-0.13333333,0,472.2)" />
      <path
         id="path42"
         d="m 2858.93,3489.4 c -168.07,-5.14 -324.98,-46.6 -484.74,-90.06 -11.59,-3.15 -19.67,-13.69 -19.67,-25.7 v -296.75 c 0,-17.51 16.68,-30.21 33.59,-25.63 154.98,42.04 307.6,81.22 470.82,86.28 132.15,4.1 305.37,11.67 409.26,-80.56 20.12,-17.86 51.77,-3.65 51.76,23.26 l 2.09,250.36 c -1.37,5.44 -2.72,10.83 -4.09,16.27 -88.28,157.18 -302.42,147.32 -459.02,142.53"
         style="fill:#1F2D3D;fill-opacity:1;fill-rule:nonzero;stroke:none"
         transform="matrix(0.13333333,0,0,-0.13333333,0,472.2)" />
      <path
         id="path43"
         d="m 9711.82,1527.87 c -13.78,4.07 -21.55,6.44 -23.31,7.1 -12.78,3.97 -22.26,7.22 -28.42,9.76 -6.17,2.52 -10.74,5.17 -13.72,7.93 -2.97,2.75 -4.46,6.11 -4.46,10.07 0,5.07 2.03,9.04 6.11,11.91 4.08,2.85 9.64,4.29 16.7,4.29 10.13,0 18.17,-2.7 24.12,-8.1 5.96,-5.4 8.92,-11.4 8.92,-18.01 v -0.33 c 0,-1.54 0.44,-2.76 1.33,-3.63 0.87,-0.89 2.09,-1.33 3.63,-1.33 h 51.23 c 1.54,0 2.75,0.44 3.63,1.33 0.89,0.87 1.33,2.09 1.33,3.63 v 2.97 c 0,14.99 -4.03,28.31 -12.06,40 -8.05,11.67 -19.07,20.71 -33.05,27.1 -14,6.39 -29.59,9.58 -46.77,9.58 -16.31,0 -31.01,-2.87 -44.12,-8.59 -13.11,-5.73 -23.42,-13.94 -30.91,-24.62 -7.49,-10.69 -11.23,-22.97 -11.23,-36.85 0,-20.94 7.37,-36.91 22.15,-47.93 14.75,-11.02 33.04,-19.83 54.86,-26.44 l 9.58,-2.64 c 11.68,-3.53 19.71,-6.51 24.13,-8.93 4.4,-2.42 6.6,-6.06 6.6,-10.91 0,-4.18 -1.76,-7.98 -5.28,-11.39 -3.53,-3.42 -9.36,-5.13 -17.52,-5.13 -10.8,0 -19.45,2.36 -25.94,7.11 -6.51,4.73 -9.75,10.18 -9.75,16.36 v 1.98 c 0,1.54 -0.45,2.75 -1.33,3.64 -0.88,0.87 -2.09,1.32 -3.63,1.32 h -51.23 c -1.55,0 -2.76,-0.45 -3.63,-1.32 -0.89,-0.89 -1.33,-2.1 -1.33,-3.64 v -4.63 c 0,-14.76 3.8,-27.76 11.41,-39 7.6,-11.23 18.34,-19.88 32.22,-25.94 13.88,-6.07 30.07,-9.09 48.58,-9.09 17.85,0 33.49,2.86 46.94,8.59 13.44,5.73 23.9,13.93 31.39,24.63 7.49,10.68 11.24,23.41 11.24,38.17 0,15.2 -4.62,28.15 -13.88,38.83 -9.25,10.69 -20.77,18.07 -34.53,22.15"
         style="fill:#1F2D3D;fill-opacity:1;fill-rule:nonzero;stroke:none"
         transform="matrix(0.13333333,0,0,-0.13333333,0,472.2)" />
      <path
         id="path44"
         d="m 9979.02,1629.5 h -51.55 c -2.65,0 -4.63,-1.11 -5.95,-3.31 l -41.64,-67.09 c -0.67,-1.32 -1.33,-1.32 -1.99,0 l -41.65,67.09 c -1.32,2.2 -3.3,3.31 -5.95,3.31 h -51.55 c -1.55,0 -2.76,-0.45 -3.64,-1.33 -0.88,-0.87 -1.32,-2.09 -1.32,-3.63 V 1403.1 c 0,-1.54 0.44,-2.76 1.32,-3.64 0.88,-0.88 2.09,-1.31 3.64,-1.31 h 52.22 c 1.53,0 2.75,0.43 3.63,1.31 0.88,0.88 1.33,2.1 1.33,3.64 v 119.98 c 0,0.87 0.21,1.37 0.66,1.48 0.44,0.11 0.87,-0.16 1.32,-0.82 l 22.47,-36.69 c 1.33,-2.21 3.3,-3.31 5.95,-3.31 h 25.12 c 2.65,0 4.63,1.1 5.95,3.31 l 22.47,36.69 c 0.44,0.66 0.88,0.93 1.33,0.82 0.43,-0.11 0.65,-0.61 0.65,-1.48 V 1403.1 c 0,-1.54 0.45,-2.76 1.33,-3.64 0.87,-0.88 2.09,-1.31 3.63,-1.31 h 52.22 c 1.55,0 2.76,0.43 3.64,1.31 0.88,0.88 1.32,2.1 1.32,3.64 v 221.44 c 0,1.54 -0.44,2.76 -1.32,3.63 -0.88,0.88 -2.09,1.33 -3.64,1.33"
         style="fill:#1F2D3D;fill-opacity:1;fill-rule:nonzero;stroke:none"
         transform="matrix(0.13333333,0,0,-0.13333333,0,472.2)" />
      <path
         id="path45"
         d="M 888.445,2519.51 C 1065.66,2622.23 1155.5,2773.7 1155.5,2974 c 0,161.77 -48.8,290.14 -148.9,390.3 -100.151,100.15 -228.573,148.94 -390.295,148.94 H 51.3633 C 23.1133,3513.24 0,3490.13 0,3461.88 V 1767.14 c 0,-28.25 23.1094,-51.36 51.3594,-51.36 H 308.152 c 28.246,0 51.356,23.11 51.356,51.36 v 1360.93 c 0,14.17 11.488,25.66 25.66,25.66 h 213.359 c 97.086,0 181.282,-75.07 184.551,-172.1 3.688,-109.3 -71.836,-187.36 -179.648,-187.36 H 467.418 c -34.934,0 -59.313,-34.62 -47.539,-67.51 l 345.32,-964.75 c 12.828,-30.83 35.969,-46.23 64.188,-46.23 h 256.793 c 38.53,0 64.19,25.66 64.19,59.06 0,10.26 -5.13,25.7 -12.83,48.79 l -264.489,611.13 c -7.699,20.52 -12.832,35.96 -12.832,48.79 0,12.83 10.265,25.66 28.226,35.96"
         style="fill:#1F2D3D;fill-opacity:1;fill-rule:nonzero;stroke:none"
         transform="matrix(0.13333333,0,0,-0.13333333,0,472.2)" />
    </g>
  </g>
</svg>
